<?xml version="1.0" standalone="no"?>
<!DOCTYPE svg PUBLIC "-//W3C//DTD SVG 20010904//EN"
 "http://www.w3.org/TR/2001/REC-SVG-20010904/DTD/svg10.dtd">
<svg version="1.0" xmlns="http://www.w3.org/2000/svg"
 width="500.000000pt" height="500.000000pt" viewBox="0 0 500.000000 500.000000"
 preserveAspectRatio="xMidYMid meet">
<metadata>
Created by potrace 1.16, written by Peter Selinger 2001-2019
</metadata>
<g transform="translate(0.000000,500.000000) scale(0.100000,-0.100000)"
fill="#000000" stroke="none">
<path d="M2350 4843 c-403 -40 -723 -144 -1044 -340 -155 -94 -277 -192 -427
-342 -195 -195 -316 -359 -440 -599 l-43 -82 49 -50 49 -50 61 118 c110 213
221 367 385 536 430 443 980 676 1597 676 254 0 466 -34 698 -111 643 -213
1170 -736 1389 -1377 214 -626 148 -1286 -187 -1854 -207 -352 -541 -665 -902
-845 -60 -30 -112 -57 -114 -59 -8 -7 82 -94 97 -94 38 0 331 175 467 278 90
69 297 275 381 378 334 415 517 927 517 1449 0 393 -75 721 -243 1060 -118
240 -234 405 -420 599 -439 458 -1066 722 -1699 714 -75 0 -152 -3 -171 -5z"/>
<path d="M2092 3379 c-191 -49 -337 -186 -384 -362 -16 -62 2 -120 53 -169 50
-48 93 -54 234 -33 146 23 432 23 577 1 177 -27 377 -85 528 -153 94 -43 115
-46 170 -28 60 20 116 78 126 132 10 53 -11 167 -45 238 -55 119 -195 241
-325 285 -92 30 -298 63 -606 96 -173 18 -238 17 -328 -7z m138 -16 c0 -5 -40
-26 -88 -48 -104 -48 -207 -115 -281 -185 -29 -28 -56 -48 -59 -45 -10 9 70
115 122 162 77 68 191 117 284 122 12 1 22 -2 22 -6z m57 -194 c66 -32 117
-130 98 -189 -10 -31 -35 -25 -33 8 4 61 -3 82 -39 120 -50 52 -102 62 -167
33 -28 -12 -53 -32 -66 -53 -21 -35 -27 -107 -10 -138 7 -13 6 -19 -5 -24 -21
-8 -35 25 -35 84 0 136 133 219 257 159z m624 -50 c70 -24 129 -106 129 -180
-1 -39 -37 -110 -53 -103 -12 4 -11 13 6 54 18 44 19 54 8 91 -51 169 -291
139 -291 -37 0 -22 -5 -34 -14 -34 -23 0 -27 30 -12 84 30 102 130 157 227
125z"/>
<path d="M1406 1014 c-58 -103 -106 -189 -106 -193 0 -11 164 -90 200 -96 44
-7 120 15 164 49 102 77 104 263 3 338 -33 25 -140 88 -149 88 -3 0 -53 -84
-112 -186z m185 61 c51 -33 79 -79 79 -130 0 -77 -67 -145 -143 -145 -30 0
-105 27 -126 46 -4 3 139 254 145 254 2 0 22 -11 45 -25z"/>
<path d="M3378 1074 c-16 -8 -28 -18 -28 -22 0 -4 33 -70 73 -147 83 -161 108
-185 189 -185 56 0 69 16 44 54 -11 17 -22 23 -36 19 -28 -8 -66 21 -90 67
l-20 39 30 16 c34 18 34 16 19 49 -11 24 -13 24 -41 10 -16 -8 -32 -13 -36
-10 -4 2 -21 32 -37 65 -16 34 -31 61 -34 61 -3 -1 -18 -8 -33 -16z"/>
<path d="M2868 908 c-27 -6 -48 -15 -48 -22 0 -15 82 -410 86 -415 7 -8 134
22 163 40 61 37 89 124 60 182 -17 33 -51 68 -76 78 -18 6 -23 17 -23 42 0 18
-7 43 -16 56 -15 21 -72 53 -91 50 -4 -1 -29 -6 -55 -11z m177 -223 c46 -45
22 -109 -47 -124 l-37 -9 -11 57 c-6 31 -14 64 -16 73 -10 34 78 37 111 3z"/>
<path d="M3253 851 c-156 -71 -79 -309 90 -277 135 25 160 210 37 274 -53 27
-73 27 -127 3z m116 -87 c25 -32 26 -52 5 -82 -24 -35 -59 -45 -93 -27 -31 15
-41 33 -41 71 0 61 90 88 129 38z"/>
<path d="M1806 850 c-57 -18 -106 -85 -106 -145 0 -71 76 -145 149 -145 52 0
60 7 48 45 -9 30 -13 33 -36 29 -18 -4 -35 1 -52 15 -25 19 -45 61 -31 61 4 0
49 -16 101 -35 67 -25 98 -32 105 -25 6 6 11 33 11 60 0 97 -96 169 -189 140z"/>
<path d="M2115 756 c-41 -18 -83 -69 -91 -111 -19 -103 85 -196 186 -166 l39
12 -15 32 c-14 30 -19 32 -55 29 -28 -3 -46 1 -59 13 -26 24 -27 86 -2 108 23
21 80 22 101 3 14 -13 19 -11 43 9 l27 23 -22 20 c-44 41 -99 51 -152 28z"/>
<path d="M2373 710 c-65 -40 -87 -111 -55 -183 24 -54 57 -78 117 -85 147 -16
221 159 110 257 -30 26 -44 31 -88 31 -34 0 -63 -7 -84 -20z m112 -56 c8 -4
22 -19 30 -35 18 -34 8 -69 -27 -93 -30 -21 -50 -20 -82 5 -67 53 -2 154 79
123z"/>
</g>
</svg>
